M48
; DRILL file {KiCad 9.0.7-9.0.7~ubuntu24.04.1} date 2026-02-25T21:19:44+0530
; FORMAT={-:-/ absolute / metric / decimal}
; #@! TF.CreationDate,2026-02-25T21:19:44+05:30
; #@! TF.GenerationSoftware,Kicad,Pcbnew,9.0.7-9.0.7~ubuntu24.04.1
; #@! TF.FileFunction,Plated,1,2,PTH
FMAT,2
METRIC
; #@! TA.AperFunction,Plated,PTH,ComponentDrill
T1C0.700
; #@! TA.AperFunction,Plated,PTH,ComponentDrill
T2C0.800
; #@! TA.AperFunction,Plated,PTH,ComponentDrill
T3C0.900
; #@! TA.AperFunction,Plated,PTH,ComponentDrill
T4C1.000
; #@! TA.AperFunction,Plated,PTH,ComponentDrill
T5C1.100
; #@! TA.AperFunction,Plated,PTH,ComponentDrill
T6C1.500
%
G90
G05
T1
X117.78Y-59.0
X117.78Y-61.4
X117.78Y-64.0
X120.1Y-116.832
X120.1Y-123.432
X124.46Y-131.782
X125.4Y-59.0
X125.4Y-61.4
X125.4Y-64.0
X127.0Y-131.782
X127.59Y-117.068
X127.69Y-120.0
X135.21Y-117.068
X135.31Y-120.0
X140.6Y-120.58
X140.6Y-128.2
X142.0Y-115.232
X149.03Y-115.5
X149.1Y-120.68
X149.1Y-128.3
X159.105Y-124.1
X161.195Y-116.8
X161.82Y-131.3
X164.36Y-131.3
X166.89Y-119.3
X166.89Y-122.3
X174.51Y-119.3
X174.51Y-122.3
T2
X112.4Y-132.8
X114.4Y-132.8
X116.4Y-132.8
X122.6Y-116.832
T3
X110.19Y-61.5
X111.46Y-61.5
X112.73Y-61.5
X114.0Y-61.5
X122.6Y-123.432
X129.54Y-131.782
X139.46Y-115.232
X151.57Y-115.5
X158.695Y-116.8
X161.605Y-124.1
T4
X112.5Y-78.72
X112.5Y-81.26
X112.5Y-83.8
X112.5Y-86.34
X112.5Y-88.88
X112.5Y-91.42
X112.5Y-93.96
X112.5Y-96.5
X112.5Y-99.04
X112.5Y-101.58
X133.5Y-52.74
X133.5Y-55.28
X133.5Y-57.82
X133.5Y-60.36
X133.5Y-62.9
X133.5Y-65.44
X133.5Y-67.98
X133.5Y-70.52
X133.5Y-73.06
X133.5Y-75.6
X133.5Y-78.14
X133.5Y-80.68
X133.5Y-83.22
X133.5Y-85.76
X133.5Y-88.3
X133.5Y-90.84
X133.5Y-93.38
X133.5Y-95.92
X133.5Y-98.46
X133.5Y-101.0
X148.5Y-52.74
X148.5Y-55.28
X148.5Y-57.82
X148.5Y-60.36
X148.5Y-62.9
X148.5Y-65.44
X148.5Y-67.98
X148.5Y-70.52
X148.5Y-73.06
X148.5Y-75.6
X148.5Y-78.14
X148.5Y-80.68
X148.5Y-83.22
X148.5Y-85.76
X148.5Y-88.3
X148.5Y-90.84
X148.5Y-93.38
X148.5Y-95.92
X148.5Y-98.46
X148.5Y-101.0
X166.3Y-67.92
X166.3Y-70.46
X166.3Y-73.0
X166.6Y-77.4
X166.6Y-79.94
X166.6Y-82.48
X166.6Y-89.44
X166.6Y-91.98
X166.6Y-94.52
X166.6Y-97.06
X166.6Y-99.6
T5
X111.2Y-122.8
X111.2Y-125.34
X166.9Y-131.3
T6
X110.3Y-132.8
X118.5Y-132.8
M30
